<svg id="svg" version="1.1" xmlns="http://www.w3.org/2000/svg" xmlns:xlink="http://www.w3.org/1999/xlink" width="400" height="218.6234817813765" viewBox="0, 0, 400,218.6234817813765"><g id="svgg"><path id="path0" d="M398.904 83.926 C 398.904 187.276,399.021 208.201,399.598 208.201 C 399.988 208.201,400.000 204.976,400.000 104.101 L 400.000 0.000 399.452 -0.000 L 398.904 -0.000 398.904 83.926 M84.308 73.193 C 83.106 73.234,81.925 73.368,81.684 73.492 C 81.184 73.749,81.080 128.934,81.577 130.240 L 81.799 130.824 85.715 130.748 C 87.868 130.707,89.685 130.618,89.752 130.551 C 90.041 130.261,89.938 98.464,89.645 97.319 C 88.712 93.679,92.674 92.408,94.412 95.790 C 94.629 96.211,94.968 96.705,95.165 96.889 C 95.580 97.274,96.227 98.731,96.227 99.279 C 96.227 99.485,96.464 99.779,96.752 99.934 C 97.041 100.088,97.457 100.621,97.677 101.119 C 97.897 101.616,98.237 102.142,98.434 102.288 C 98.804 102.561,99.160 103.340,99.381 104.359 C 99.452 104.682,99.687 105.003,99.904 105.072 C 100.122 105.141,100.469 105.580,100.675 106.048 C 100.881 106.515,101.343 107.266,101.701 107.716 C 102.058 108.166,102.351 108.664,102.351 108.822 C 102.351 109.314,102.846 110.224,103.113 110.224 C 103.402 110.224,104.319 111.946,104.319 112.488 C 104.319 112.684,104.524 112.969,104.775 113.120 C 105.224 113.391,106.069 114.789,106.069 115.260 C 106.069 115.392,106.364 115.750,106.725 116.053 C 107.125 116.389,107.381 116.814,107.381 117.140 C 107.381 117.517,107.602 117.805,108.129 118.116 C 108.718 118.463,108.909 118.745,109.026 119.435 C 109.123 120.013,109.428 120.568,109.918 121.057 C 110.327 121.466,110.662 121.989,110.662 122.220 C 110.662 122.451,110.907 122.800,111.207 122.997 C 111.506 123.193,112.011 123.869,112.328 124.498 C 112.645 125.128,113.031 125.717,113.187 125.807 C 113.342 125.898,113.636 126.408,113.839 126.942 C 114.043 127.475,114.342 127.961,114.503 128.023 C 114.836 128.151,115.692 129.724,115.692 130.209 C 115.692 130.642,117.637 130.827,121.268 130.740 L 124.112 130.672 124.167 102.144 C 124.202 84.346,124.144 73.538,124.015 73.408 C 123.638 73.031,115.931 73.101,115.681 73.483 C 115.545 73.691,115.475 80.056,115.488 90.869 C 115.500 100.252,115.502 108.142,115.492 108.403 C 115.402 110.685,111.099 110.609,111.099 108.325 C 111.099 108.180,110.908 107.929,110.676 107.766 C 110.443 107.602,110.045 106.944,109.792 106.302 C 109.539 105.660,109.041 104.781,108.685 104.349 C 108.329 103.917,108.037 103.419,108.037 103.243 C 108.037 103.066,107.798 102.670,107.506 102.363 C 107.214 102.056,106.723 101.301,106.416 100.686 C 106.108 100.070,105.713 99.447,105.537 99.301 C 105.361 99.155,105.101 98.674,104.961 98.233 C 104.820 97.791,104.430 97.135,104.093 96.774 C 103.757 96.413,103.371 95.700,103.236 95.189 C 103.098 94.666,102.859 94.259,102.690 94.259 C 102.401 94.259,101.476 92.632,101.476 92.125 C 101.476 91.989,101.289 91.747,101.061 91.587 C 100.832 91.427,100.418 90.905,100.141 90.427 C 99.864 89.948,99.373 89.213,99.050 88.792 C 98.727 88.371,98.348 87.666,98.209 87.225 C 98.070 86.785,97.808 86.368,97.627 86.299 C 97.447 86.229,97.109 85.753,96.877 85.240 C 96.645 84.728,96.158 83.975,95.794 83.568 C 95.431 83.161,95.134 82.602,95.134 82.325 C 95.134 82.022,94.885 81.646,94.507 81.376 C 94.162 81.131,93.748 80.607,93.587 80.213 C 93.426 79.819,92.970 79.042,92.574 78.487 C 92.178 77.931,91.853 77.321,91.853 77.131 C 91.853 76.941,91.725 76.706,91.568 76.610 C 91.099 76.323,90.148 74.946,89.995 74.333 C 89.760 73.389,88.137 73.064,84.308 73.193 M246.926 78.568 C 246.940 80.338,246.945 80.355,247.212 79.497 C 247.502 78.564,247.433 76.763,247.107 76.763 C 246.999 76.763,246.917 77.575,246.926 78.568 M269.375 78.226 C 269.314 78.550,269.345 79.017,269.445 79.265 C 269.582 79.603,269.631 79.455,269.642 78.677 C 269.657 77.520,269.546 77.333,269.375 78.226 M190.317 79.840 C 190.263 81.911,189.841 83.630,189.181 84.469 L 188.749 85.018 189.552 85.149 C 190.589 85.317,190.507 85.652,190.432 81.551 C 190.395 79.579,190.344 78.809,190.317 79.840 M246.986 82.340 C 246.987 83.302,247.025 83.669,247.071 83.154 C 247.117 82.640,247.117 81.853,247.070 81.405 C 247.023 80.957,246.985 81.378,246.986 82.340 M267.287 84.423 C 266.154 85.036,266.194 85.074,267.979 85.074 C 269.293 85.074,269.656 85.006,269.656 84.759 C 269.656 84.089,268.268 83.893,267.287 84.423 M284.308 84.541 C 284.308 85.046,284.376 85.074,285.621 85.074 C 286.342 85.074,286.933 85.034,286.933 84.985 C 286.933 84.935,286.342 84.696,285.621 84.452 L 284.308 84.009 284.308 84.541 M217.535 84.561 C 217.189 84.907,217.445 85.073,218.316 85.067 C 218.940 85.063,219.138 84.999,218.917 84.875 C 218.356 84.558,217.690 84.406,217.535 84.561 M251.722 84.855 C 251.722 84.976,252.236 85.064,252.870 85.052 C 253.774 85.035,253.902 84.993,253.472 84.855 C 252.679 84.601,251.722 84.601,251.722 84.855 M187.373 85.010 C 187.645 85.062,188.038 85.060,188.247 85.005 C 188.457 84.951,188.234 84.908,187.753 84.910 C 187.272 84.913,187.101 84.957,187.373 85.010 M301.367 86.605 C 301.111 86.770,301.172 86.817,301.640 86.820 C 301.971 86.822,302.242 86.725,302.242 86.605 C 302.242 86.328,301.795 86.328,301.367 86.605 M246.961 91.247 L 247.020 95.629 247.786 96.041 L 248.551 96.452 248.618 95.332 C 248.664 94.570,248.581 94.097,248.360 93.853 C 247.774 93.205,247.123 91.426,247.325 91.024 C 247.428 90.819,247.721 90.244,247.977 89.746 C 248.594 88.546,248.572 88.396,247.672 87.571 L 246.902 86.866 246.961 91.247 M165.284 98.132 C 165.556 98.184,165.950 98.182,166.159 98.127 C 166.368 98.073,166.145 98.030,165.664 98.032 C 165.183 98.035,165.012 98.079,165.284 98.132 M190.213 101.859 C 190.320 107.136,190.431 107.281,190.461 102.187 C 190.475 99.872,190.407 97.977,190.310 97.977 C 190.213 97.977,190.169 99.724,190.213 101.859 M284.308 98.196 C 284.308 98.457,284.903 98.457,285.511 98.196 C 285.862 98.045,285.786 98.005,285.128 97.992 C 284.677 97.984,284.308 98.075,284.308 98.196 M290.454 98.469 C 290.830 99.193,290.869 99.201,290.869 98.560 C 290.869 98.182,290.752 97.977,290.534 97.977 C 290.255 97.977,290.242 98.061,290.454 98.469 M161.004 99.743 C 161.047 99.872,161.176 99.978,161.290 99.978 C 161.405 99.978,161.533 99.872,161.576 99.743 C 161.620 99.614,161.491 99.508,161.290 99.508 C 161.090 99.508,160.961 99.614,161.004 99.743 M306.834 99.972 C 306.834 100.358,306.889 100.391,307.160 100.166 C 307.489 99.893,307.419 99.508,307.040 99.508 C 306.927 99.508,306.834 99.717,306.834 99.972 M305.303 101.346 C 305.303 101.508,305.242 101.948,305.167 102.324 C 305.048 102.918,305.091 103.007,305.495 103.007 C 306.074 103.007,306.195 101.395,305.631 101.178 C 305.440 101.105,305.303 101.175,305.303 101.346 M190.356 114.161 C 190.356 116.025,190.389 116.788,190.430 115.856 C 190.471 114.923,190.471 113.398,190.430 112.466 C 190.389 111.534,190.356 112.296,190.356 114.161 M305.248 116.684 C 305.116 117.374,305.245 117.879,305.552 117.879 C 305.929 117.879,305.994 117.261,305.680 116.662 L 305.367 116.065 305.248 116.684 M246.918 125.697 C 246.912 127.936,246.965 128.376,247.239 128.376 C 247.710 128.376,247.716 124.064,247.246 123.443 C 246.958 123.062,246.924 123.294,246.918 125.697 M213.013 124.112 C 213.013 124.438,213.107 124.626,213.231 124.549 C 213.352 124.475,213.450 124.278,213.450 124.112 C 213.450 123.945,213.352 123.748,213.231 123.674 C 213.107 123.597,213.013 123.786,213.013 124.112 " stroke="none" fill="#f8f9f9" fill-rule="evenodd"></path><path id="path1" d="M280.688 69.539 C 279.719 69.750,278.709 70.039,278.444 70.181 C 273.808 72.662,271.516 76.681,271.259 82.777 C 271.100 86.554,270.786 86.979,268.162 86.978 C 265.639 86.977,265.527 87.159,265.468 91.366 C 265.407 95.710,265.496 95.869,268.032 95.964 C 269.276 96.011,269.867 96.132,270.164 96.401 C 271.211 97.348,271.186 96.921,271.186 114.346 L 271.186 130.737 271.959 131.415 L 272.733 132.094 276.895 132.094 L 281.057 132.094 281.817 131.288 L 282.577 130.483 282.539 114.160 C 282.512 102.385,282.570 97.708,282.748 97.375 C 283.344 96.262,284.090 96.009,286.771 96.009 C 290.431 96.009,290.432 96.008,290.432 91.585 C 290.432 86.991,290.075 86.615,286.013 86.936 L 284.085 87.089 283.213 86.216 C 282.198 85.202,282.117 84.578,282.697 82.245 C 283.360 79.574,284.360 78.904,287.657 78.919 C 290.253 78.932,290.712 78.537,291.206 75.866 C 291.393 74.856,291.694 73.569,291.876 73.005 C 292.281 71.751,292.098 70.518,291.444 70.094 C 290.111 69.230,283.645 68.896,280.688 69.539 M234.858 72.087 C 234.423 72.266,233.956 72.658,233.819 72.958 C 233.551 73.545,233.441 130.191,233.707 130.883 C 234.077 131.847,235.290 132.094,239.667 132.094 L 243.813 132.094 244.265 131.364 C 244.715 130.636,244.716 130.538,244.728 101.953 C 244.740 71.554,244.762 72.265,243.790 71.892 C 243.042 71.605,235.635 71.767,234.858 72.087 M192.981 76.568 C 192.604 76.984,192.562 77.420,192.544 81.106 C 192.518 86.369,192.090 87.191,189.541 86.875 C 187.194 86.585,186.724 87.358,186.717 91.510 C 186.711 95.626,187.037 96.184,189.364 96.038 C 190.367 95.975,191.415 96.352,192.016 96.991 L 192.517 97.524 192.477 109.287 C 192.431 122.787,192.509 123.694,193.967 126.583 C 194.812 128.256,196.681 130.416,197.741 130.942 C 200.511 132.320,201.530 132.531,205.382 132.531 C 211.373 132.531,212.322 131.767,211.354 127.720 C 211.167 126.938,210.928 125.788,210.824 125.163 C 210.491 123.174,210.184 122.909,208.212 122.909 C 206.591 122.909,206.473 122.873,205.303 122.035 C 203.590 120.808,203.609 120.961,203.609 108.387 L 203.609 97.823 204.103 97.089 C 204.717 96.179,205.717 95.922,207.922 96.110 C 211.033 96.375,211.477 95.766,211.400 91.330 L 211.343 88.074 210.649 87.453 C 209.966 86.843,209.912 86.833,207.397 86.857 L 204.839 86.881 204.224 86.193 L 203.609 85.504 203.609 81.927 C 203.609 75.880,203.842 76.109,197.683 76.108 C 193.603 76.107,193.378 76.129,192.981 76.568 M162.172 86.411 C 161.454 86.515,160.273 86.792,159.547 87.025 C 158.822 87.258,157.929 87.508,157.564 87.581 C 157.198 87.653,156.558 87.927,156.142 88.189 C 155.726 88.450,155.041 88.828,154.620 89.028 C 152.573 90.000,148.738 94.265,147.557 96.884 C 143.995 104.780,144.036 115.313,147.658 122.570 C 148.140 123.537,148.606 124.378,148.691 124.439 C 148.777 124.499,149.061 124.901,149.322 125.331 C 149.858 126.213,153.624 129.907,153.988 129.907 C 154.118 129.907,154.513 130.112,154.865 130.363 C 158.445 132.913,167.716 133.684,171.958 131.785 C 172.653 131.474,173.342 131.217,173.489 131.214 C 173.921 131.204,176.551 129.450,177.905 128.267 C 186.359 120.883,187.467 102.785,180.042 93.376 C 175.874 88.095,169.001 85.416,162.172 86.411 M308.693 86.408 C 307.972 86.511,306.987 86.741,306.506 86.920 C 306.025 87.098,305.179 87.344,304.626 87.465 C 303.507 87.710,301.232 89.014,299.399 90.462 C 298.332 91.304,297.715 91.982,295.983 94.210 C 294.870 95.642,293.265 99.244,292.609 101.778 C 289.282 114.643,294.143 127.794,303.545 131.366 C 306.049 132.317,306.888 132.509,309.395 132.706 C 317.730 133.363,323.949 130.965,327.533 125.714 C 331.053 120.556,330.872 119.024,326.736 118.983 C 325.954 118.975,324.491 118.874,323.485 118.758 C 320.998 118.473,320.153 118.740,319.287 120.088 C 317.254 123.251,313.089 124.513,308.839 123.252 C 305.236 122.183,301.711 116.193,303.056 113.425 L 303.520 112.469 316.604 112.437 L 329.688 112.405 330.211 111.813 C 331.269 110.617,330.610 103.467,329.037 99.059 C 325.836 90.089,317.820 85.105,308.693 86.408 M217.059 87.184 C 216.698 87.372,216.284 87.676,216.139 87.859 C 215.845 88.231,215.744 128.616,216.033 130.228 C 216.338 131.924,216.995 132.131,221.830 132.052 L 225.953 131.985 226.590 131.270 L 227.228 130.556 227.228 109.335 L 227.228 88.115 226.649 87.578 C 226.229 87.189,225.824 87.043,225.173 87.044 C 224.679 87.045,222.799 87.000,220.995 86.943 C 218.298 86.859,217.598 86.902,217.059 87.184 M252.438 86.990 C 250.731 87.182,250.847 85.542,250.847 109.476 L 250.847 130.757 251.375 131.371 L 251.902 131.985 255.852 132.057 C 260.247 132.137,261.326 131.866,261.719 130.583 C 261.814 130.271,261.843 120.525,261.782 108.924 L 261.673 87.832 260.920 87.392 C 260.189 86.965,254.890 86.714,252.438 86.990 M168.070 96.557 C 176.206 100.477,175.509 120.792,167.159 123.111 C 159.508 125.235,154.126 115.490,156.721 104.210 C 158.289 97.392,163.087 94.157,168.070 96.557 M314.707 96.091 C 316.944 97.196,317.967 98.163,318.939 100.092 C 320.104 102.404,320.062 104.029,318.815 104.846 C 318.245 105.220,305.409 105.359,304.079 105.005 C 303.214 104.776,302.757 103.490,303.112 102.290 C 303.611 100.604,306.089 97.102,306.784 97.102 C 306.876 97.102,307.294 96.871,307.713 96.589 C 309.342 95.491,312.970 95.233,314.707 96.091 " stroke="none" fill="#1c1c1b" fill-rule="evenodd"></path><path id="path2" d="M66.129 61.373 C 65.797 61.509,65.455 61.804,65.370 62.029 C 65.179 62.537,65.109 139.529,65.299 140.286 C 65.686 141.830,62.793 141.717,101.951 141.717 L 137.039 141.717 137.878 140.948 L 138.718 140.179 138.556 138.706 C 138.468 137.896,138.416 136.495,138.441 135.593 C 138.466 134.691,138.517 118.305,138.554 99.180 C 138.590 80.055,138.642 64.142,138.669 63.819 C 138.740 62.985,138.269 61.976,137.609 61.543 C 136.901 61.079,67.254 60.914,66.129 61.373 M280.153 69.184 C 274.267 70.953,270.749 76.080,270.749 82.889 C 270.749 86.166,270.580 86.386,268.068 86.386 C 266.620 86.386,266.318 86.456,265.786 86.913 L 265.172 87.441 265.102 91.096 C 265.004 96.244,265.235 96.665,268.157 96.665 C 271.009 96.665,270.749 94.871,270.749 114.535 L 270.749 131.253 271.388 131.892 C 271.740 132.244,272.257 132.540,272.536 132.551 C 275.401 132.661,281.560 132.476,281.889 132.270 C 283.030 131.558,282.996 132.113,282.996 114.321 L 282.996 97.818 283.573 97.241 C 284.132 96.682,284.227 96.665,286.808 96.665 L 289.466 96.665 290.277 95.900 L 291.088 95.135 291.088 91.497 L 291.088 87.859 290.340 87.154 C 289.456 86.320,288.516 86.140,285.954 86.316 C 283.447 86.488,282.996 86.119,282.996 83.898 C 282.996 80.572,284.253 79.335,287.571 79.393 C 290.749 79.448,291.195 79.095,291.717 76.107 C 291.854 75.325,292.143 74.123,292.358 73.435 C 293.297 70.439,292.622 69.596,288.697 68.863 C 285.452 68.257,282.921 68.352,280.153 69.184 M288.511 69.451 C 292.019 69.937,292.651 70.605,291.876 73.005 C 291.694 73.569,291.393 74.856,291.206 75.866 C 290.712 78.537,290.253 78.932,287.657 78.919 C 284.360 78.904,283.360 79.574,282.697 82.245 C 282.117 84.578,282.198 85.202,283.213 86.216 L 284.085 87.089 286.013 86.936 C 290.075 86.615,290.432 86.991,290.432 91.585 C 290.432 96.008,290.431 96.009,286.771 96.009 C 284.090 96.009,283.344 96.262,282.748 97.375 C 282.570 97.708,282.512 102.385,282.539 114.160 L 282.577 130.483 281.817 131.288 L 281.057 132.094 276.895 132.094 L 272.733 132.094 271.959 131.415 L 271.186 130.737 271.186 114.346 C 271.186 96.921,271.211 97.348,270.164 96.401 C 269.867 96.132,269.276 96.011,268.032 95.964 C 265.496 95.869,265.407 95.710,265.468 91.366 C 265.527 87.159,265.639 86.977,268.162 86.978 C 270.786 86.979,271.100 86.554,271.259 82.777 C 271.516 76.681,273.808 72.662,278.444 70.181 C 280.235 69.222,284.584 68.907,288.511 69.451 M238.054 71.277 C 232.246 71.477,232.925 67.406,232.919 102.088 C 232.914 132.481,232.870 131.182,233.931 132.129 C 234.677 132.795,243.973 132.804,244.512 132.139 C 245.176 131.320,245.184 130.950,245.116 101.098 L 245.052 72.399 244.505 71.868 C 243.812 71.194,242.905 71.111,238.054 71.277 M88.342 71.512 C 89.705 71.771,90.574 72.344,91.075 73.314 C 91.278 73.708,91.878 74.620,92.409 75.342 C 92.940 76.063,93.590 77.097,93.853 77.638 C 94.116 78.179,94.484 78.801,94.671 79.020 C 95.033 79.444,95.492 80.183,96.803 82.449 C 97.255 83.231,98.000 84.424,98.457 85.100 C 98.915 85.776,99.289 86.401,99.289 86.487 C 99.289 86.574,99.492 86.906,99.739 87.226 C 100.447 88.142,102.132 90.828,102.132 91.042 C 102.132 91.148,102.411 91.645,102.752 92.146 C 104.431 94.613,105.136 95.717,105.274 96.097 C 105.357 96.326,106.086 97.482,106.895 98.667 C 107.704 99.851,108.515 101.090,108.698 101.421 C 108.881 101.752,109.299 102.415,109.627 102.894 C 109.956 103.373,110.224 103.876,110.224 104.012 C 110.224 104.148,110.495 104.612,110.826 105.043 C 111.156 105.474,111.701 106.221,112.036 106.703 C 112.437 107.282,112.756 107.538,112.973 107.454 C 113.865 107.112,113.878 106.864,113.908 89.826 C 113.939 71.785,113.877 72.576,115.313 71.792 C 116.203 71.305,123.261 71.245,124.395 71.715 C 125.835 72.311,125.752 70.455,125.752 102.074 L 125.752 130.709 124.911 131.620 L 124.069 132.531 120.679 132.531 C 117.165 132.531,116.291 132.378,115.181 131.564 C 114.612 131.147,111.536 126.489,111.536 126.044 C 111.536 125.938,111.255 125.509,110.911 125.091 C 110.567 124.673,110.076 123.917,109.819 123.412 C 109.327 122.445,107.346 119.273,104.903 115.541 C 104.101 114.315,103.445 113.216,103.445 113.097 C 103.445 112.979,103.217 112.604,102.939 112.264 C 102.661 111.924,102.167 111.203,101.841 110.662 C 101.516 110.120,100.866 109.087,100.397 108.365 C 99.524 107.020,97.603 103.936,97.212 103.252 C 96.985 102.855,95.726 100.938,94.662 99.368 C 94.324 98.870,93.951 98.208,93.833 97.897 C 93.633 97.372,91.656 95.914,91.439 96.131 C 91.386 96.184,91.366 103.879,91.395 113.231 C 91.462 134.628,92.058 132.531,85.903 132.531 C 81.385 132.531,80.645 132.383,79.960 131.336 C 79.504 130.641,79.389 73.641,79.842 72.796 C 80.503 71.559,85.005 70.879,88.342 71.512 M243.790 71.892 C 244.762 72.265,244.740 71.554,244.728 101.953 C 244.716 130.538,244.715 130.636,244.265 131.364 L 243.813 132.094 239.667 132.094 C 235.290 132.094,234.077 131.847,233.707 130.883 C 233.441 130.191,233.551 73.545,233.819 72.958 C 234.271 71.964,235.259 71.761,239.572 71.770 C 241.730 71.775,243.628 71.830,243.790 71.892 M219.950 73.319 C 219.527 73.830,218.630 74.836,217.956 75.555 C 216.020 77.621,216.110 78.162,218.859 80.960 C 221.798 83.951,222.043 83.897,225.779 79.422 C 227.004 77.954,226.906 77.234,225.242 75.451 C 224.512 74.669,223.663 73.660,223.355 73.209 C 222.495 71.948,221.047 71.994,219.950 73.319 M255.812 72.614 C 255.355 72.695,254.901 72.850,254.803 72.958 C 250.445 77.784,250.452 77.690,254.152 81.627 C 254.954 82.481,255.301 82.687,256.123 82.800 L 257.121 82.937 259.121 80.889 C 261.974 77.968,261.646 76.112,257.763 73.199 C 256.788 72.467,256.731 72.450,255.812 72.614 M192.682 76.240 L 191.990 77.029 192.037 81.176 C 192.095 86.182,192.058 86.264,189.770 86.295 C 186.487 86.338,186.331 86.575,186.331 91.525 C 186.331 96.307,186.409 96.467,188.795 96.609 C 190.464 96.708,191.770 97.227,191.913 97.848 C 191.971 98.100,192.045 103.866,192.079 110.662 C 192.133 121.667,192.181 123.162,192.522 124.330 C 194.327 130.520,198.870 133.438,206.226 133.133 C 211.752 132.903,212.970 131.702,211.940 127.501 C 210.749 122.651,210.700 122.583,208.245 122.366 C 204.014 121.991,204.046 122.098,204.046 108.283 L 204.046 97.835 204.610 97.304 C 205.133 96.813,205.356 96.772,207.649 96.739 C 211.717 96.682,211.919 96.436,211.919 91.525 C 211.919 86.586,211.725 86.357,207.486 86.298 C 203.882 86.248,204.046 86.499,204.046 81.042 C 204.046 75.323,204.193 75.451,197.603 75.451 L 193.375 75.451 192.682 76.240 M202.647 76.523 C 203.527 77.059,203.609 77.519,203.609 81.927 L 203.609 85.504 204.224 86.193 L 204.839 86.881 207.397 86.857 C 209.912 86.833,209.966 86.843,210.649 87.453 L 211.343 88.074 211.400 91.330 C 211.477 95.766,211.033 96.375,207.922 96.110 C 205.717 95.922,204.717 96.179,204.103 97.089 L 203.609 97.823 203.609 108.387 C 203.609 120.961,203.590 120.808,205.303 122.035 C 206.473 122.873,206.591 122.909,208.212 122.909 C 210.184 122.909,210.491 123.174,210.824 125.163 C 210.928 125.788,211.167 126.938,211.354 127.720 C 212.322 131.767,211.373 132.531,205.382 132.531 C 201.530 132.531,200.511 132.320,197.741 130.942 C 196.681 130.416,194.812 128.256,193.967 126.583 C 192.509 123.694,192.431 122.787,192.477 109.287 L 192.517 97.524 192.016 96.991 C 191.415 96.352,190.367 95.975,189.364 96.038 C 187.037 96.184,186.711 95.626,186.717 91.510 C 186.724 87.358,187.194 86.585,189.541 86.875 C 192.090 87.191,192.518 86.369,192.544 81.106 C 192.571 75.676,192.127 76.107,197.683 76.108 C 201.502 76.109,202.042 76.154,202.647 76.523 M161.837 86.057 C 159.621 86.321,157.777 86.897,155.932 87.904 C 155.511 88.133,154.675 88.571,154.073 88.875 C 150.875 90.495,146.346 96.711,145.642 100.450 C 145.524 101.075,145.231 102.307,144.990 103.189 C 143.933 107.054,143.933 111.816,144.990 116.015 C 145.323 117.341,145.666 118.819,145.751 119.300 C 146.250 122.136,151.707 129.907,153.198 129.907 C 153.337 129.907,153.668 130.139,153.935 130.423 C 154.201 130.706,155.128 131.217,155.996 131.557 C 156.863 131.898,157.671 132.244,157.791 132.327 C 159.770 133.691,170.103 133.614,172.444 132.219 C 172.685 132.076,173.396 131.741,174.025 131.475 C 177.866 129.853,182.873 124.110,183.592 120.503 C 183.676 120.082,183.990 119.109,184.291 118.341 C 185.785 114.525,185.644 103.632,184.055 100.089 C 183.884 99.709,183.627 99.005,183.483 98.524 C 182.575 95.481,177.310 88.792,175.823 88.792 C 175.704 88.792,175.235 88.547,174.783 88.247 C 174.330 87.948,173.422 87.543,172.765 87.348 C 172.107 87.153,171.215 86.813,170.781 86.593 C 170.057 86.224,169.114 86.097,165.336 85.860 C 164.675 85.819,163.100 85.907,161.837 86.057 M308.942 85.985 C 307.447 86.128,306.287 86.389,305.164 86.835 C 304.272 87.190,303.411 87.479,303.250 87.479 C 303.089 87.479,302.586 87.775,302.132 88.136 C 301.678 88.496,301.211 88.792,301.093 88.792 C 299.157 88.792,293.732 95.853,292.584 99.869 C 292.348 100.693,291.949 102.056,291.698 102.898 C 290.728 106.142,291.079 115.957,292.259 118.584 C 292.436 118.978,292.643 119.669,292.719 120.120 C 293.030 121.962,295.783 126.272,298.012 128.406 C 303.371 133.539,312.899 134.915,320.939 131.718 C 324.369 130.354,328.420 126.488,329.252 123.783 C 329.345 123.483,329.598 123.009,329.815 122.731 C 330.824 121.440,330.793 119.505,329.755 118.949 C 329.510 118.818,327.869 118.622,326.109 118.515 C 324.349 118.407,322.629 118.270,322.288 118.210 C 321.056 117.993,319.739 118.520,319.111 119.482 C 317.067 122.610,314.515 123.672,310.416 123.099 C 306.788 122.591,303.652 119.179,303.209 115.255 C 302.949 112.957,301.880 113.128,316.751 113.091 C 330.574 113.056,330.100 113.087,330.571 112.177 C 331.301 110.765,330.832 101.934,329.928 100.069 C 329.632 99.460,329.225 98.420,329.024 97.758 C 328.672 96.608,328.409 96.113,327.103 94.150 C 325.623 91.925,325.006 91.181,323.890 90.276 C 322.347 89.026,319.956 87.479,319.566 87.479 C 319.400 87.479,318.558 87.198,317.696 86.853 C 316.278 86.287,315.368 86.126,312.083 85.858 C 311.542 85.814,310.128 85.871,308.942 85.985 M167.137 86.376 C 175.296 87.235,181.473 92.631,183.795 100.929 C 186.676 111.230,184.188 122.779,177.905 128.267 C 176.551 129.450,173.921 131.204,173.489 131.214 C 173.342 131.217,172.653 131.474,171.958 131.785 C 167.716 133.684,158.445 132.913,154.865 130.363 C 154.513 130.112,154.118 129.907,153.988 129.907 C 153.624 129.907,149.858 126.213,149.322 125.331 C 149.061 124.901,148.777 124.499,148.691 124.439 C 148.606 124.378,148.140 123.537,147.658 122.570 C 143.599 114.437,144.122 101.674,148.795 94.806 C 150.426 92.408,153.112 89.744,154.620 89.028 C 155.041 88.828,155.726 88.450,156.142 88.189 C 156.558 87.927,157.198 87.653,157.564 87.581 C 157.929 87.508,158.822 87.258,159.547 87.025 C 161.997 86.237,164.106 86.057,167.137 86.376 M218.261 86.305 C 215.104 86.807,215.426 84.201,215.420 109.299 C 215.416 132.515,215.384 131.917,216.630 132.395 C 217.411 132.695,226.226 132.531,226.652 132.209 C 227.731 131.391,227.696 132.158,227.682 109.369 C 227.667 86.272,227.731 87.506,226.514 86.740 C 226.080 86.467,219.445 86.116,218.261 86.305 M313.706 86.395 C 321.329 87.497,326.407 91.692,329.037 99.059 C 330.610 103.467,331.269 110.617,330.211 111.813 L 329.688 112.405 316.604 112.437 L 303.520 112.469 303.056 113.425 C 301.711 116.193,305.236 122.183,308.839 123.252 C 313.089 124.513,317.254 123.251,319.287 120.088 C 320.153 118.740,320.998 118.473,323.485 118.758 C 324.491 118.874,325.954 118.975,326.736 118.983 C 330.872 119.024,331.053 120.556,327.533 125.714 C 323.949 130.965,317.730 133.363,309.395 132.706 C 299.287 131.910,292.718 124.450,291.716 112.628 C 291.144 105.870,292.937 98.131,295.983 94.210 C 297.715 91.982,298.332 91.304,299.399 90.462 C 301.232 89.014,303.507 87.710,304.626 87.465 C 305.179 87.344,306.025 87.098,306.506 86.920 C 308.313 86.250,311.230 86.037,313.706 86.395 M251.494 86.666 C 250.347 87.570,250.410 86.241,250.410 109.541 L 250.410 131.069 250.968 131.800 L 251.526 132.531 256.009 132.531 C 260.952 132.531,261.492 132.416,262.107 131.226 C 262.630 130.214,262.607 88.254,262.082 87.505 C 261.331 86.433,252.661 85.746,251.494 86.666 M225.173 87.044 C 225.824 87.043,226.229 87.189,226.649 87.578 L 227.228 88.115 227.228 109.335 L 227.228 130.556 226.590 131.270 L 225.953 131.985 221.830 132.052 C 216.995 132.131,216.338 131.924,216.033 130.228 C 215.744 128.616,215.845 88.231,216.139 87.859 C 216.837 86.978,217.584 86.837,220.995 86.943 C 222.799 87.000,224.679 87.045,225.173 87.044 M260.920 87.392 L 261.673 87.832 261.782 108.924 C 261.843 120.525,261.814 130.271,261.719 130.583 C 261.326 131.866,260.247 132.137,255.852 132.057 L 251.902 131.985 251.375 131.371 L 250.847 130.757 250.847 109.476 C 250.847 85.542,250.731 87.182,252.438 86.990 C 254.890 86.714,260.189 86.965,260.920 87.392 M163.477 95.872 C 159.976 97.010,157.743 99.766,156.721 104.210 C 154.126 115.490,159.508 125.235,167.159 123.111 C 175.509 120.792,176.206 100.477,168.070 96.557 C 166.290 95.700,164.725 95.466,163.477 95.872 M309.131 95.828 C 308.770 95.964,308.132 96.306,307.713 96.589 C 307.294 96.871,306.876 97.102,306.784 97.102 C 306.089 97.102,303.611 100.604,303.112 102.290 C 302.757 103.490,303.214 104.776,304.079 105.005 C 305.409 105.359,318.245 105.220,318.815 104.846 C 320.062 104.029,320.104 102.404,318.939 100.092 C 317.967 98.163,316.944 97.196,314.707 96.091 C 313.773 95.630,310.116 95.457,309.131 95.828 M315.309 97.070 C 316.301 97.571,317.113 98.076,317.113 98.191 C 317.113 98.305,317.388 98.722,317.723 99.118 C 319.077 100.711,319.643 102.758,318.996 103.717 L 318.517 104.429 311.236 104.429 C 302.293 104.429,302.282 104.423,304.245 100.866 C 305.646 98.327,306.800 97.364,309.896 96.146 C 310.960 95.728,313.519 96.164,315.309 97.070 M167.842 97.024 C 169.041 97.609,169.622 98.044,170.033 98.664 C 170.340 99.128,170.678 99.508,170.784 99.508 C 171.147 99.508,172.600 103.554,172.904 105.413 C 173.529 109.235,173.159 114.558,172.109 116.874 C 171.752 117.662,171.460 118.438,171.460 118.598 C 171.460 118.758,171.288 119.081,171.077 119.314 C 170.867 119.547,170.413 120.114,170.070 120.574 C 169.726 121.033,169.283 121.466,169.086 121.535 C 168.888 121.604,168.449 121.917,168.111 122.230 C 167.044 123.217,163.225 123.207,161.729 122.213 C 157.505 119.406,155.565 111.995,157.130 104.647 C 157.776 101.616,160.202 97.342,161.290 97.320 C 161.411 97.317,162.001 97.078,162.603 96.789 C 164.306 95.968,165.817 96.036,167.842 97.024 " stroke="none" fill="#faa039" fill-rule="evenodd"></path><path id="path3" d="M0.000 109.349 L 0.000 218.699 200.000 218.699 L 400.000 218.699 400.000 213.450 C 400.000 208.497,399.977 208.201,399.597 208.201 C 399.128 208.201,398.890 185.890,398.906 143.357 C 398.910 131.088,398.912 93.814,398.910 60.525 L 398.907 0.000 199.453 0.000 L 0.000 0.000 0.000 109.349 M137.609 61.543 C 138.269 61.976,138.740 62.985,138.669 63.819 C 138.642 64.142,138.590 80.055,138.554 99.180 C 138.517 118.305,138.466 134.691,138.441 135.593 C 138.416 136.495,138.468 137.896,138.556 138.706 L 138.718 140.179 137.878 140.948 L 137.039 141.717 101.951 141.717 C 62.793 141.717,65.686 141.830,65.299 140.286 C 65.109 139.529,65.179 62.537,65.370 62.029 C 65.714 61.116,65.328 61.125,101.889 61.150 C 134.515 61.172,137.085 61.200,137.609 61.543 M288.697 68.863 C 292.622 69.596,293.297 70.439,292.358 73.435 C 292.143 74.123,291.854 75.325,291.717 76.107 C 291.195 79.095,290.749 79.448,287.571 79.393 C 284.253 79.335,282.996 80.572,282.996 83.898 C 282.996 86.119,283.447 86.488,285.954 86.316 C 288.516 86.140,289.456 86.320,290.340 87.154 L 291.088 87.859 291.088 91.497 L 291.088 95.135 290.277 95.900 L 289.466 96.665 286.808 96.665 C 284.227 96.665,284.132 96.682,283.573 97.241 L 282.996 97.818 282.996 114.321 C 282.996 132.113,283.030 131.558,281.889 132.270 C 281.560 132.476,275.401 132.661,272.536 132.551 C 272.257 132.540,271.740 132.244,271.388 131.892 L 270.749 131.253 270.749 114.535 C 270.749 94.871,271.009 96.665,268.157 96.665 C 265.235 96.665,265.004 96.244,265.102 91.096 L 265.172 87.441 265.786 86.913 C 266.318 86.456,266.620 86.386,268.068 86.386 C 270.580 86.386,270.749 86.166,270.749 82.889 C 270.749 72.847,278.325 66.926,288.697 68.863 M244.505 71.868 L 245.052 72.399 245.116 101.098 C 245.184 130.950,245.176 131.320,244.512 132.139 C 243.973 132.804,234.677 132.795,233.931 132.129 C 232.870 131.182,232.914 132.481,232.919 102.088 C 232.925 67.406,232.246 71.477,238.054 71.277 C 242.905 71.111,243.812 71.194,244.505 71.868 M82.634 71.507 C 81.139 71.660,80.224 72.082,79.842 72.796 C 79.389 73.641,79.504 130.641,79.960 131.336 C 80.645 132.383,81.385 132.531,85.903 132.531 C 92.058 132.531,91.462 134.628,91.395 113.231 C 91.366 103.879,91.386 96.184,91.439 96.131 C 91.656 95.914,93.633 97.372,93.833 97.897 C 93.951 98.208,94.324 98.870,94.662 99.368 C 95.726 100.938,96.985 102.855,97.212 103.252 C 97.603 103.936,99.524 107.020,100.397 108.365 C 100.866 109.087,101.516 110.120,101.841 110.662 C 102.167 111.203,102.661 111.924,102.939 112.264 C 103.217 112.604,103.445 112.979,103.445 113.097 C 103.445 113.216,104.101 114.315,104.903 115.541 C 107.346 119.273,109.327 122.445,109.819 123.412 C 110.076 123.917,110.567 124.673,110.911 125.091 C 111.255 125.509,111.536 125.938,111.536 126.044 C 111.536 126.489,114.612 131.147,115.181 131.564 C 116.291 132.378,117.165 132.531,120.679 132.531 L 124.069 132.531 124.911 131.620 L 125.752 130.709 125.752 102.074 C 125.752 70.455,125.835 72.311,124.395 71.715 C 123.261 71.245,116.203 71.305,115.313 71.792 C 113.877 72.576,113.939 71.785,113.908 89.826 C 113.878 106.864,113.865 107.112,112.973 107.454 C 112.756 107.538,112.437 107.282,112.036 106.703 C 111.701 106.221,111.156 105.474,110.826 105.043 C 110.495 104.612,110.224 104.148,110.224 104.012 C 110.224 103.876,109.956 103.373,109.627 102.894 C 109.299 102.415,108.881 101.752,108.698 101.421 C 108.515 101.090,107.704 99.851,106.895 98.667 C 106.086 97.482,105.357 96.326,105.274 96.097 C 105.136 95.717,104.431 94.613,102.752 92.146 C 102.411 91.645,102.132 91.148,102.132 91.042 C 102.132 90.828,100.447 88.142,99.739 87.226 C 99.492 86.906,99.289 86.574,99.289 86.487 C 99.289 86.401,98.915 85.776,98.457 85.100 C 98.000 84.424,97.255 83.231,96.803 82.449 C 95.492 80.183,95.033 79.444,94.671 79.020 C 94.484 78.801,94.116 78.179,93.853 77.638 C 93.590 77.097,92.940 76.063,92.409 75.342 C 91.878 74.620,91.278 73.708,91.075 73.314 C 90.144 71.509,87.711 70.988,82.634 71.507 M223.355 73.209 C 223.663 73.660,224.512 74.669,225.242 75.451 C 226.906 77.234,227.004 77.954,225.779 79.422 C 222.043 83.897,221.798 83.951,218.859 80.960 C 216.110 78.162,216.020 77.621,217.956 75.555 C 218.630 74.836,219.527 73.830,219.950 73.319 C 221.047 71.994,222.495 71.948,223.355 73.209 M257.763 73.199 C 261.646 76.112,261.974 77.968,259.121 80.889 L 257.121 82.937 256.123 82.800 C 255.301 82.687,254.954 82.481,254.152 81.627 C 250.452 77.690,250.445 77.784,254.803 72.958 C 255.024 72.713,256.566 72.427,256.862 72.576 C 256.982 72.637,257.388 72.917,257.763 73.199 M89.049 73.522 C 89.637 73.697,89.891 73.915,89.995 74.333 C 90.148 74.946,91.099 76.323,91.568 76.610 C 91.725 76.706,91.853 76.941,91.853 77.131 C 91.853 77.321,92.178 77.931,92.574 78.487 C 92.970 79.042,93.426 79.819,93.587 80.213 C 93.748 80.607,94.162 81.131,94.507 81.376 C 94.885 81.646,95.134 82.022,95.134 82.325 C 95.134 82.602,95.431 83.161,95.794 83.568 C 96.158 83.975,96.645 84.728,96.877 85.240 C 97.109 85.753,97.447 86.229,97.627 86.299 C 97.808 86.368,98.070 86.785,98.209 87.225 C 98.348 87.666,98.727 88.371,99.050 88.792 C 99.373 89.213,99.864 89.948,100.141 90.427 C 100.418 90.905,100.832 91.427,101.061 91.587 C 101.289 91.747,101.476 91.989,101.476 92.125 C 101.476 92.632,102.401 94.259,102.690 94.259 C 102.859 94.259,103.098 94.666,103.236 95.189 C 103.371 95.700,103.757 96.413,104.093 96.774 C 104.430 97.135,104.820 97.791,104.961 98.233 C 105.101 98.674,105.361 99.155,105.537 99.301 C 105.713 99.447,106.108 100.070,106.416 100.686 C 106.723 101.301,107.214 102.056,107.506 102.363 C 107.798 102.670,108.037 103.066,108.037 103.243 C 108.037 103.419,108.329 103.917,108.685 104.349 C 109.041 104.781,109.539 105.660,109.792 106.302 C 110.045 106.944,110.443 107.602,110.676 107.766 C 110.908 107.929,111.099 108.180,111.099 108.325 C 111.099 110.609,115.402 110.685,115.492 108.403 C 115.502 108.142,115.500 100.252,115.488 90.869 C 115.475 80.056,115.545 73.691,115.681 73.483 C 115.931 73.101,123.638 73.031,124.015 73.408 C 124.144 73.538,124.202 84.346,124.167 102.144 L 124.112 130.672 121.268 130.740 C 117.637 130.827,115.692 130.642,115.692 130.209 C 115.692 129.724,114.836 128.151,114.503 128.023 C 114.342 127.961,114.043 127.475,113.839 126.942 C 113.636 126.408,113.342 125.898,113.187 125.807 C 113.031 125.717,112.645 125.128,112.328 124.498 C 112.011 123.869,111.506 123.193,111.207 122.997 C 110.907 122.800,110.662 122.451,110.662 122.220 C 110.662 121.989,110.327 121.466,109.918 121.057 C 109.428 120.568,109.123 120.013,109.026 119.435 C 108.909 118.745,108.718 118.463,108.129 118.116 C 107.602 117.805,107.381 117.517,107.381 117.140 C 107.381 116.814,107.125 116.389,106.725 116.053 C 106.364 115.750,106.069 115.392,106.069 115.260 C 106.069 114.789,105.224 113.391,104.775 113.120 C 104.524 112.969,104.319 112.684,104.319 112.488 C 104.319 111.946,103.402 110.224,103.113 110.224 C 102.846 110.224,102.351 109.314,102.351 108.822 C 102.351 108.664,102.058 108.166,101.701 107.716 C 101.343 107.266,100.881 106.515,100.675 106.048 C 100.469 105.580,100.122 105.141,99.904 105.072 C 99.687 105.003,99.452 104.682,99.381 104.359 C 99.160 103.340,98.804 102.561,98.434 102.288 C 98.237 102.142,97.897 101.616,97.677 101.119 C 97.457 100.621,97.041 100.088,96.752 99.934 C 96.464 99.779,96.227 99.485,96.227 99.279 C 96.227 98.731,95.580 97.274,95.165 96.889 C 94.968 96.705,94.629 96.211,94.412 95.790 C 92.674 92.408,88.712 93.679,89.645 97.319 C 89.938 98.464,90.041 130.261,89.752 130.551 C 89.685 130.618,87.868 130.707,85.715 130.748 L 81.799 130.824 81.577 130.240 C 81.080 128.934,81.184 73.749,81.684 73.492 C 82.573 73.035,87.477 73.055,89.049 73.522 M202.446 75.684 C 204.012 76.278,204.046 76.391,204.046 81.042 C 204.046 86.499,203.882 86.248,207.486 86.298 C 211.725 86.357,211.919 86.586,211.919 91.525 C 211.919 96.436,211.717 96.682,207.649 96.739 C 205.356 96.772,205.133 96.813,204.610 97.304 L 204.046 97.835 204.046 108.283 C 204.046 122.098,204.014 121.991,208.245 122.366 C 210.700 122.583,210.749 122.651,211.940 127.501 C 212.970 131.702,211.752 132.903,206.226 133.133 C 198.870 133.438,194.327 130.520,192.522 124.330 C 192.181 123.162,192.133 121.667,192.079 110.662 C 192.045 103.866,191.971 98.100,191.913 97.848 C 191.770 97.227,190.464 96.708,188.795 96.609 C 186.409 96.467,186.331 96.307,186.331 91.525 C 186.331 86.575,186.487 86.338,189.770 86.295 C 192.058 86.264,192.095 86.182,192.037 81.176 L 191.990 77.029 192.682 76.240 L 193.375 75.451 197.603 75.451 C 200.067 75.451,202.087 75.548,202.446 75.684 M247.393 77.693 C 247.443 78.204,247.362 79.016,247.212 79.497 C 246.945 80.355,246.940 80.338,246.926 78.568 C 246.910 76.687,247.235 76.078,247.393 77.693 M269.642 78.677 C 269.631 79.455,269.582 79.603,269.445 79.265 C 269.279 78.854,269.373 77.638,269.572 77.638 C 269.618 77.638,269.649 78.106,269.642 78.677 M190.426 85.207 C 190.387 85.247,189.993 85.220,189.552 85.149 L 188.749 85.018 189.181 84.469 C 189.841 83.630,190.263 81.911,190.317 79.840 C 190.344 78.809,190.395 79.579,190.432 81.551 C 190.468 83.522,190.465 85.168,190.426 85.207 M247.071 83.154 C 247.025 83.669,246.987 83.302,246.986 82.340 C 246.985 81.378,247.023 80.957,247.070 81.405 C 247.117 81.853,247.117 82.640,247.071 83.154 M269.492 84.347 C 270.195 84.761,269.544 85.074,267.979 85.074 C 266.194 85.074,266.154 85.036,267.287 84.423 C 267.940 84.070,268.962 84.035,269.492 84.347 M286.933 84.985 C 286.933 85.034,286.342 85.074,285.621 85.074 C 284.376 85.074,284.308 85.046,284.308 84.541 L 284.308 84.009 285.621 84.452 C 286.342 84.696,286.933 84.935,286.933 84.985 M218.917 84.875 C 219.138 84.999,218.940 85.063,218.316 85.067 C 217.445 85.073,217.189 84.907,217.535 84.561 C 217.690 84.406,218.356 84.558,218.917 84.875 M253.472 84.855 C 253.902 84.993,253.774 85.035,252.870 85.052 C 252.236 85.064,251.722 84.976,251.722 84.855 C 251.722 84.601,252.679 84.601,253.472 84.855 M188.247 85.005 C 188.038 85.060,187.645 85.062,187.373 85.010 C 187.101 84.957,187.272 84.913,187.753 84.910 C 188.234 84.908,188.457 84.951,188.247 85.005 M168.266 86.063 C 169.275 86.138,170.321 86.358,170.781 86.593 C 171.215 86.813,172.107 87.153,172.765 87.348 C 173.422 87.543,174.330 87.948,174.783 88.247 C 175.235 88.547,175.704 88.792,175.823 88.792 C 177.310 88.792,182.575 95.481,183.483 98.524 C 183.627 99.005,183.884 99.709,184.055 100.089 C 185.644 103.632,185.785 114.525,184.291 118.341 C 183.990 119.109,183.676 120.082,183.592 120.503 C 182.873 124.110,177.866 129.853,174.025 131.475 C 173.396 131.741,172.685 132.076,172.444 132.219 C 170.103 133.614,159.770 133.691,157.791 132.327 C 157.671 132.244,156.863 131.898,155.996 131.557 C 155.128 131.217,154.201 130.706,153.935 130.423 C 153.668 130.139,153.337 129.907,153.198 129.907 C 151.707 129.907,146.250 122.136,145.751 119.300 C 145.666 118.819,145.323 117.341,144.990 116.015 C 143.933 111.816,143.933 107.054,144.990 103.189 C 145.231 102.307,145.524 101.075,145.642 100.450 C 146.346 96.711,150.875 90.495,154.073 88.875 C 154.675 88.571,155.511 88.133,155.932 87.904 C 157.777 86.897,159.621 86.321,161.837 86.057 C 164.067 85.792,164.617 85.793,168.266 86.063 M314.598 86.083 C 315.459 86.164,316.815 86.501,317.696 86.853 C 318.558 87.198,319.400 87.479,319.566 87.479 C 319.956 87.479,322.347 89.026,323.890 90.276 C 325.006 91.181,325.623 91.925,327.103 94.150 C 328.409 96.113,328.672 96.608,329.024 97.758 C 329.225 98.420,329.632 99.460,329.928 100.069 C 330.832 101.934,331.301 110.765,330.571 112.177 C 330.100 113.087,330.574 113.056,316.751 113.091 C 301.880 113.128,302.949 112.957,303.209 115.255 C 303.652 119.179,306.788 122.591,310.416 123.099 C 314.515 123.672,317.067 122.610,319.111 119.482 C 319.739 118.520,321.056 117.993,322.288 118.210 C 322.629 118.270,324.349 118.407,326.109 118.515 C 327.869 118.622,329.510 118.818,329.755 118.949 C 330.793 119.505,330.824 121.440,329.815 122.731 C 329.598 123.009,329.345 123.483,329.252 123.783 C 328.804 125.240,325.960 128.679,324.019 130.114 C 318.646 134.082,307.651 134.484,301.448 130.939 C 297.630 128.756,293.263 123.344,292.719 120.120 C 292.643 119.669,292.436 118.978,292.259 118.584 C 291.079 115.957,290.728 106.142,291.698 102.898 C 291.949 102.056,292.348 100.693,292.584 99.869 C 293.732 95.853,299.157 88.792,301.093 88.792 C 301.211 88.792,301.678 88.496,302.132 88.136 C 302.586 87.775,303.089 87.479,303.250 87.479 C 303.411 87.479,304.272 87.190,305.164 86.835 C 306.287 86.389,307.447 86.128,308.942 85.985 C 311.056 85.782,311.494 85.790,314.598 86.083 M226.514 86.740 C 227.731 87.506,227.667 86.272,227.682 109.369 C 227.696 132.158,227.731 131.391,226.652 132.209 C 226.226 132.531,217.411 132.695,216.630 132.395 C 215.384 131.917,215.416 132.515,215.420 109.299 C 215.426 84.201,215.104 86.807,218.261 86.305 C 219.445 86.116,226.080 86.467,226.514 86.740 M260.995 86.691 C 262.545 87.338,262.438 85.674,262.438 109.300 C 262.438 132.668,262.506 131.490,261.133 132.200 C 260.621 132.465,259.588 132.531,256.009 132.531 L 251.526 132.531 250.968 131.800 L 250.410 131.069 250.410 109.541 C 250.410 86.241,250.347 87.570,251.494 86.666 C 252.005 86.264,260.022 86.284,260.995 86.691 M302.242 86.605 C 302.242 86.725,301.971 86.822,301.640 86.820 C 301.172 86.817,301.111 86.770,301.367 86.605 C 301.795 86.328,302.242 86.328,302.242 86.605 M248.442 88.559 C 248.442 88.714,248.233 89.249,247.977 89.746 C 247.721 90.244,247.428 90.819,247.325 91.024 C 247.123 91.426,247.774 93.205,248.360 93.853 C 248.581 94.097,248.664 94.570,248.618 95.332 L 248.551 96.452 247.786 96.041 L 247.020 95.629 246.961 91.247 L 246.902 86.866 247.672 87.571 C 248.095 87.959,248.442 88.403,248.442 88.559 M309.896 96.146 C 306.800 97.364,305.646 98.327,304.245 100.866 C 302.282 104.423,302.293 104.429,311.236 104.429 L 318.517 104.429 318.996 103.717 C 319.643 102.758,319.077 100.711,317.723 99.118 C 317.388 98.722,317.113 98.305,317.113 98.191 C 317.113 97.219,311.333 95.581,309.896 96.146 M162.603 96.789 C 162.001 97.078,161.411 97.317,161.290 97.320 C 160.202 97.342,157.776 101.616,157.130 104.647 C 155.565 111.995,157.505 119.406,161.729 122.213 C 163.225 123.207,167.044 123.217,168.111 122.230 C 168.449 121.917,168.888 121.604,169.086 121.535 C 169.283 121.466,169.726 121.033,170.070 120.574 C 170.413 120.114,170.867 119.547,171.077 119.314 C 171.288 119.081,171.460 118.758,171.460 118.598 C 171.460 118.438,171.752 117.662,172.109 116.874 C 173.159 114.558,173.529 109.235,172.904 105.413 C 172.600 103.554,171.147 99.508,170.784 99.508 C 170.678 99.508,170.340 99.128,170.033 98.664 C 168.670 96.605,164.939 95.663,162.603 96.789 M166.159 98.127 C 165.950 98.182,165.556 98.184,165.284 98.132 C 165.012 98.079,165.183 98.035,165.664 98.032 C 166.145 98.030,166.368 98.073,166.159 98.127 M190.461 102.187 C 190.447 104.502,190.403 106.249,190.364 106.069 C 190.197 105.310,190.149 97.977,190.310 97.977 C 190.407 97.977,190.475 99.872,190.461 102.187 M285.511 98.196 C 284.903 98.457,284.308 98.457,284.308 98.196 C 284.308 98.075,284.677 97.984,285.128 97.992 C 285.786 98.005,285.862 98.045,285.511 98.196 M290.869 98.560 C 290.869 99.201,290.830 99.193,290.454 98.469 C 290.242 98.061,290.255 97.977,290.534 97.977 C 290.752 97.977,290.869 98.182,290.869 98.560 M161.576 99.743 C 161.533 99.872,161.405 99.978,161.290 99.978 C 161.176 99.978,161.047 99.872,161.004 99.743 C 160.961 99.614,161.090 99.508,161.290 99.508 C 161.491 99.508,161.620 99.614,161.576 99.743 M307.366 99.702 C 307.432 99.809,307.339 100.017,307.160 100.166 C 306.889 100.391,306.834 100.358,306.834 99.972 C 306.834 99.503,307.145 99.345,307.366 99.702 M305.960 102.156 C 305.960 102.878,305.889 103.007,305.495 103.007 C 305.091 103.007,305.048 102.918,305.167 102.324 C 305.242 101.948,305.303 101.508,305.303 101.346 C 305.303 101.175,305.440 101.105,305.631 101.178 C 305.845 101.260,305.960 101.601,305.960 102.156 M190.430 115.856 C 190.389 116.788,190.356 116.025,190.356 114.161 C 190.356 112.296,190.389 111.534,190.430 112.466 C 190.471 113.398,190.471 114.923,190.430 115.856 M305.874 117.569 C 305.563 118.378,305.060 117.667,305.248 116.684 L 305.367 116.065 305.680 116.662 C 305.852 116.990,305.939 117.398,305.874 117.569 M247.567 126.122 C 247.567 127.980,247.509 128.376,247.239 128.376 C 246.965 128.376,246.912 127.936,246.918 125.697 C 246.924 123.294,246.958 123.062,247.246 123.443 C 247.480 123.752,247.567 124.478,247.567 126.122 M213.450 124.112 C 213.450 124.278,213.352 124.475,213.231 124.549 C 213.107 124.626,213.013 124.438,213.013 124.112 C 213.013 123.786,213.107 123.597,213.231 123.674 C 213.352 123.748,213.450 123.945,213.450 124.112 " stroke="none" fill="#eae8d9" fill-rule="evenodd"></path></g></svg>