<?xml version="1.0" standalone="no"?>
<!DOCTYPE svg PUBLIC "-//W3C//DTD SVG 20010904//EN"
 "http://www.w3.org/TR/2001/REC-SVG-20010904/DTD/svg10.dtd">
<svg version="1.0" xmlns="http://www.w3.org/2000/svg"
 width="330.000000pt" height="135.000000pt" viewBox="0 0 330.000000 135.000000"
 preserveAspectRatio="xMidYMid meet">

<g transform="translate(0.000000,135.000000) scale(0.100000,-0.100000)"
fill="#000000" stroke="none">
<path d="M2494 974 c-38 -9 -76 -59 -81 -108 -5 -40 -9 -45 -32 -48 -23 -3
-26 -8 -29 -45 -3 -42 -2 -43 27 -43 l31 0 2 -162 3 -163 55 0 55 0 3 163 2
162 41 0 40 0 -3 43 c-3 41 -4 42 -40 45 -35 3 -38 6 -38 33 0 30 7 33 57 30
17 -2 22 5 28 39 4 23 4 44 1 47 -7 8 -96 13 -122 7z"/>
<path d="M2032 678 l3 -273 55 0 55 0 3 273 2 272 -60 0 -60 0 2 -272z"/>
<path d="M1627 914 c-4 -4 -7 -27 -7 -51 0 -39 -2 -43 -25 -43 -23 0 -25 -4
-25 -45 0 -41 2 -45 25 -45 l25 0 0 -115 c0 -173 27 -215 139 -215 57 0 65 8
57 56 -6 27 -12 34 -29 34 -41 0 -47 18 -47 132 l0 108 41 0 40 0 -3 43 c-3
41 -4 42 -40 45 -36 3 -37 4 -40 50 l-3 47 -50 3 c-28 2 -54 0 -58 -4z"/>
<path d="M1215 820 c-4 -6 -2 -17 4 -24 9 -10 8 -15 -3 -19 -30 -12 -66 -102
-66 -167 0 -128 67 -201 190 -208 135 -8 210 67 210 210 0 122 -66 198 -180
206 -33 2 -72 0 -89 -6 -23 -8 -31 -7 -35 4 -6 16 -22 18 -31 4z m198 -122
c29 -38 28 -138 0 -176 -34 -46 -102 -42 -128 8 -29 56 -12 177 27 194 32 13
81 0 101 -26z"/>
<path d="M1860 609 l0 -210 53 3 52 3 3 208 2 207 -55 0 -55 0 0 -211z"/>
<path d="M2204 807 c-2 -7 -3 -100 -2 -207 l3 -195 55 0 55 0 3 208 2 207 -55
0 c-36 0 -57 -5 -61 -13z"/>
<path d="M2719 800 c-84 -45 -123 -143 -99 -248 22 -99 92 -152 202 -152 69 0
126 25 157 69 35 48 29 61 -30 61 -40 0 -54 -5 -69 -22 -27 -34 -94 -31 -126
5 -13 16 -24 37 -24 48 0 18 8 19 141 19 l142 0 -6 51 c-9 70 -39 129 -83 159
-50 34 -153 39 -205 10z m154 -87 c8 -10 17 -27 19 -38 3 -18 -3 -20 -79 -23
-73 -2 -83 -1 -83 14 0 10 10 28 22 41 27 29 97 32 121 6z"/>
</g>
</svg>
